<svg width="14" height="14" viewBox="0 0 14 14" fill="none" xmlns="http://www.w3.org/2000/svg">
<path d="M12.6875 2.1875H1.3125C1.07051 2.1875 0.875 2.38301 0.875 2.625V11.375C0.875 11.617 1.07051 11.8125 1.3125 11.8125H12.6875C12.9295 11.8125 13.125 11.617 13.125 11.375V2.625C13.125 2.38301 12.9295 2.1875 12.6875 2.1875ZM11.5828 3.67637L7.26934 7.03281C7.1627 7.11621 7.01367 7.11621 6.90703 7.03281L2.59219 3.67637C2.57592 3.66381 2.56399 3.64649 2.55807 3.62681C2.55215 3.60714 2.55253 3.58611 2.55916 3.56666C2.56579 3.54721 2.57835 3.53033 2.59506 3.51838C2.61177 3.50642 2.6318 3.5 2.65234 3.5H11.5227C11.5432 3.5 11.5632 3.50642 11.5799 3.51838C11.5967 3.53033 11.6092 3.54721 11.6158 3.56666C11.6225 3.58611 11.6229 3.60714 11.6169 3.62681C11.611 3.64649 11.5991 3.66381 11.5828 3.67637Z" fill="#262626"/>
</svg>
